<?xml version="1.0" encoding="UTF-8"?>
<svg version="1.1" xmlns="http://www.w3.org/2000/svg" width="600" height="400">
<path d="M0 0 C198 0 396 0 600 0 C600 132 600 264 600 400 C402 400 204 400 0 400 C0 268 0 136 0 0 Z " fill="#800001" transform="translate(0,0)"/>
<path d="M0 0 C52.47 0 104.94 0 159 0 C160.65 6.6 162.3 13.2 164 20 C165.70565646 25.08110802 167.40472092 30.1035514 169.28442383 35.11352539 C170.07602486 37.22355072 170.85257732 39.33867686 171.62695312 41.45507812 C175.28472018 51.39578348 179.3117052 60.96974354 184.3125 70.3125 C184.70638916 71.05105225 185.10027832 71.78960449 185.50610352 72.55053711 C190.84485344 82.50430369 196.63754835 92.13942601 202.71264648 101.65844727 C204.46008708 104.41682651 205.96306465 106.88919394 207 110 C207.66 110 208.32 110 209 110 C210.05078125 111.40625 210.05078125 111.40625 211.3125 113.5 C225.48515492 135.43140762 245.87026785 156.94310345 266.38671875 172.9453125 C268.83183309 174.86777908 271.17974736 176.87597354 273.5222168 178.92138672 C279.15367581 183.80913286 284.98917027 188.40021281 291 192.8125 C291.71816895 193.3588208 292.43633789 193.9051416 293.17626953 194.46801758 C296.98106264 197.36173075 296.98106264 197.36173075 301.5234375 197.671875 C304.96655824 195.34749696 308.32903617 192.96719724 311.625 190.4375 C312.33575684 189.89738281 313.04651367 189.35726562 313.77880859 188.80078125 C319.6310253 184.3318639 325.3604419 179.73464333 331 175 C331.98226563 174.20335937 332.96453125 173.40671875 333.9765625 172.5859375 C342.01688601 165.9789796 349.44196608 158.77233483 356.8125 151.4375 C357.30036987 150.95480652 357.78823975 150.47211304 358.29089355 149.97479248 C364.99099414 143.33080333 371.13482811 136.39312884 377 129 C378.01279662 127.76850179 379.02804951 126.53901516 380.046875 125.3125 C385.66367945 118.46273848 390.92376503 111.42917193 395.9375 104.125 C396.46891602 103.35285156 397.00033203 102.58070313 397.54785156 101.78515625 C400.54236964 97.3626001 403.26931735 92.86712353 405.81860352 88.17431641 C406.94488591 86.10143544 408.10474388 84.05251654 409.28125 82.0078125 C413.58944179 74.48490763 417.59359718 66.98268137 421 59 C421.43441406 58.0409375 421.86882812 57.081875 422.31640625 56.09375 C425.71191018 48.47005725 428.68256143 40.70580392 431.5625 32.875 C432.10825684 31.4206958 432.10825684 31.4206958 432.66503906 29.93701172 C436.25370362 20.02553862 438.39726538 10.41093849 441 0 C493.47 0 545.94 0 600 0 C600 74.25 600 148.5 600 225 C402 225 204 225 0 225 C0 150.75 0 76.5 0 0 Z " fill="#006F3F" transform="translate(0,175)"/>
<path d="M0 0 C3.81443478 1.27147826 4.79325021 2.97245743 7.25 6.125 C29.57823636 33.98144923 63.15796355 51.14937649 98.31640625 55.59765625 C103.91175994 56.1652744 109.50523018 56.19092564 115.125 56.1875 C116.77290527 56.1884668 116.77290527 56.1884668 118.45410156 56.18945312 C125.81057901 56.14183838 132.84697868 55.65352915 140.109375 54.4375 C142.80123478 54.03008339 145.28514574 53.9679933 148 54 C148.33450937 69.78198036 148.15820441 85.3474471 146.625 101.0625 C146.43587036 103.0105957 146.43587036 103.0105957 146.24291992 104.99804688 C144.94678998 117.54050955 142.98689536 129.75242472 140 142 C139.66946053 143.46198853 139.34010621 144.92424534 139.01171875 146.38671875 C129.4363848 187.96932162 110.01851125 228.91610867 83 262 C82.24203125 262.94875 81.4840625 263.8975 80.703125 264.875 C75.67722769 271.11404493 70.39519407 277.08027317 65 283 C63.88625 284.25296875 63.88625 284.25296875 62.75 285.53125 C55.92634708 293.20785953 48.87203123 300.53012758 41.0625 307.2109375 C39.64444849 308.44098976 38.24952322 309.69805377 36.875 310.9765625 C30.2686855 317.11418577 23.21273895 322.5425026 16.01171875 327.953125 C12.17600305 330.83905292 8.4777368 333.86858485 4.859375 337.0234375 C3 338 3 338 0.765625 338.03125 C-3.39511565 336.47978738 -6.53948244 333.86591942 -10 331.125 C-11.12233032 330.25077393 -11.12233032 330.25077393 -12.26733398 329.35888672 C-18.9975328 324.08229611 -25.5417969 318.60437597 -32 313 C-33.04994141 312.10087891 -33.04994141 312.10087891 -34.12109375 311.18359375 C-44.91892167 301.86738047 -55.6444878 292.22091865 -64.9453125 281.390625 C-66.4875053 279.59628661 -68.04791375 277.81757791 -69.6171875 276.046875 C-94.92125729 247.3289002 -113.54245112 214.72592517 -127 179 C-127.30276855 178.21141602 -127.60553711 177.42283203 -127.91748047 176.61035156 C-137.66322601 151.14621736 -142.70269186 124.34989127 -144.82080078 97.23486328 C-144.9734899 95.33061776 -145.15377975 93.42861837 -145.33984375 91.52734375 C-146.46744524 79.06194103 -146.08793398 66.50285938 -146 54 C-145.09765625 54.144375 -144.1953125 54.28875 -143.265625 54.4375 C-119.02016176 57.96297227 -94.47419827 57.11491175 -71 50 C-69.90558594 49.67515625 -68.81117188 49.3503125 -67.68359375 49.015625 C-50.82924867 43.52353617 -35.26929501 34.70962023 -22 23 C-21.43845215 22.5138623 -20.8769043 22.02772461 -20.29833984 21.52685547 C-12.70983088 14.92693731 -6.10753944 8.01713188 0 0 Z " fill="#FBF9F9" transform="translate(299,32)"/>
<path d="M0 0 C3.62941 1.51431166 5.76284414 3.64943929 8.4375 6.5 C26.23545567 24.61111618 49.63651823 37.26127315 74 44 C74.73089844 44.20641113 75.46179688 44.41282227 76.21484375 44.62548828 C94.9336275 49.65472214 114.76296201 48.8322057 134 49 C134.55737729 69.4457423 132.28079404 88.74446767 128.55792236 108.8137207 C128.20286008 110.72961784 127.85588468 112.64700836 127.50927734 114.56445312 C125.5091065 124.91025841 122.41182427 133.7645272 119 144 C88.64 144 58.28 144 27 144 C27 142.35 27 140.7 27 139 C23.04 139 19.08 139 15 139 C17 135 17 135 19.1875 132.5625 C21.26169478 130.19032878 21.26169478 130.19032878 20.875 127.5625 C20.441875 126.2940625 20.441875 126.2940625 20 125 C19.33259181 123.00024733 18.66584119 121.00027497 18 119 C16.38931641 119.2165625 16.38931641 119.2165625 14.74609375 119.4375 C13.30992644 119.62523429 11.87372676 119.81272109 10.4375 120 C9.73302734 120.09539062 9.02855469 120.19078125 8.30273438 120.2890625 C3.8431577 120.86449175 -0.49217559 121.18565043 -5 121 C-6 120 -6 120 -6.09765625 116.18359375 C-6.09098089 114.60153318 -6.07901875 113.01948841 -6.0625 111.4375 C-6.05798828 110.63119141 -6.05347656 109.82488281 -6.04882812 108.99414062 C-6.03700518 106.99606244 -6.01906914 104.99802217 -6 103 C5.52992873 102.75979315 16.59556312 103.25981345 28 105 C28.03738281 105.78503906 28.07476562 106.57007813 28.11328125 107.37890625 C28.61906425 116.1096287 28.61906425 116.1096287 32 124 C35.72169785 126.50810073 38.53073058 127.3943473 43 127 C42.72285156 126.45730469 42.44570313 125.91460937 42.16015625 125.35546875 C41.79792969 124.64003906 41.43570313 123.92460937 41.0625 123.1875 C40.70285156 122.47980469 40.34320313 121.77210938 39.97265625 121.04296875 C37.09621493 115.00128679 36.76323394 107.87318932 38.80078125 101.4921875 C42.69664827 93.80755634 49.50690298 88.07124938 57 84 C57.66 84 58.32 84 59 84 C58.01 81.69 57.02 79.38 56 77 C55.14664063 77.16242188 54.29328125 77.32484375 53.4140625 77.4921875 C50.01219629 77.99818591 46.81162826 78.13304831 43.375 78.125 C42.26898438 78.12757813 41.16296875 78.13015625 40.0234375 78.1328125 C37.4881845 78.0214448 35.41082513 77.74088772 33 77 C34.44917275 71.68636658 37.75508014 68.30886061 42 65 C45.90494626 62.77695943 49.90102151 60.83747311 54 59 C53.40574219 58.6376123 52.81148437 58.27522461 52.19921875 57.90185547 C49.46359096 56.23037838 46.73179295 54.55273666 44 52.875 C43.06542969 52.30523437 42.13085938 51.73546875 41.16796875 51.1484375 C36.79187062 48.45545403 32.62122166 45.75547932 28.62890625 42.515625 C25.83026162 40.32828987 25.83026162 40.32828987 22.33984375 39.9296875 C21.54707031 40.24164063 20.75429688 40.55359375 19.9375 40.875 C19.01453125 41.19984375 18.0915625 41.5246875 17.140625 41.859375 C16.10421875 42.23578125 15.0678125 42.6121875 14 43 C11.39926025 43.73245324 8.80069184 44.44156466 6.1875 45.125 C4.35251953 45.62386719 4.35251953 45.62386719 2.48046875 46.1328125 C-3.30038184 47.57315911 -8.59887195 48.13703558 -14.5625 48.125 C-16.48255859 48.12886719 -16.48255859 48.12886719 -18.44140625 48.1328125 C-22 48 -22 48 -24.6640625 47.21484375 C-27.20152046 46.71598997 -27.20152046 46.71598997 -29.45703125 48.87109375 C-30.23433594 49.71800781 -31.01164062 50.56492188 -31.8125 51.4375 C-32.99779297 52.70400391 -32.99779297 52.70400391 -34.20703125 53.99609375 C-34.79871094 54.65738281 -35.39039063 55.31867188 -36 56 C-34.948125 56.20625 -33.89625 56.4125 -32.8125 56.625 C-28.59113471 57.85303354 -26.2156214 60.26671852 -24 64 C-22.81716433 66.64119129 -21.90344194 69.2421246 -21 72 C-16.38 71.34 -11.76 70.68 -7 70 C-7 66.37 -7 62.74 -7 59 C-5.80503906 58.82984375 -4.61007812 58.6596875 -3.37890625 58.484375 C4.33468876 57.32697102 11.29415916 56.27378695 18.32421875 52.73828125 C20 52 20 52 22.625 51.9375 C25.50752418 53.22705029 27.86456058 54.9081648 30.3515625 56.84375 C32.11311936 58.196531 32.11311936 58.196531 35 59 C35 59.66 35 60.32 35 61 C33.586925 61.97569464 32.16856634 62.94475419 30.72265625 63.87109375 C25.64155505 67.20088569 22.14377139 70.24566626 20 76 C19.5059768 78.67838068 19.23450227 81.27977366 19 84 C18.67 84 18.34 84 18 84 C17.13483472 79.50114053 16.69096728 76.98352209 19 73 C14.76824446 72.95001561 10.53665204 72.91400836 6.3046875 72.89013672 C4.86943564 72.88016969 3.43420358 72.86659113 1.99902344 72.84912109 C-8.90617754 72.71984047 -18.44690018 73.74899646 -28.875 77.125 C-35.40508875 79.0426789 -43.43905253 80.881169 -50.0078125 78.171875 C-52.29218856 77.74259711 -52.29218856 77.74259711 -54.578125 80.08984375 C-55.45984375 81.02957031 -56.3415625 81.96929687 -57.25 82.9375 C-58.58804688 84.34322266 -58.58804688 84.34322266 -59.953125 85.77734375 C-60.62859375 86.51082031 -61.3040625 87.24429688 -62 88 C-60.57107422 88.45052734 -60.57107422 88.45052734 -59.11328125 88.91015625 C-56.13330151 89.95333611 -54.86908561 90.54067683 -53 93 C-51.8422494 96.47325181 -51.93133348 99.36067448 -52 103 C-51.34 103.33 -50.68 103.66 -50 104 C-50.82242188 104.4846875 -51.64484375 104.969375 -52.4921875 105.46875 C-64.10391889 112.44115222 -77.6308571 120.64843323 -84.1640625 132.90625 C-88.91841913 141.38478623 -88.91841913 141.38478623 -93 144 C-100.82466419 145.85044554 -109.08845103 144.92836205 -117 144 C-124.76254469 123.33845346 -128.13872143 101.80475186 -131 80 C-131.13535156 78.98421875 -131.27070313 77.9684375 -131.41015625 76.921875 C-132.44262375 67.67329292 -132.08190244 58.29137646 -132 49 C-130.4994104 48.98598145 -130.4994104 48.98598145 -128.96850586 48.97167969 C-77.92868501 48.41328242 -36.75739747 37.24586787 0 0 Z " fill="#810102" transform="translate(299,53)"/>
<path d="M0 0 C0.27972656 0.79664063 0.55945313 1.59328125 0.84765625 2.4140625 C4.15963827 11.16791852 7.55285171 15.97050694 16 20 C15.67577393 16.43351321 14.65750369 14.37939232 12.5 11.625 C9.79060901 8.07234034 9.270734 5.42198874 9 1 C14.86448454 1.2555331 18.65757571 1.65757571 23 6 C23.33 4.35 23.66 2.7 24 1 C53.37 1 82.74 1 113 1 C112.27852555 5.32884669 111.75270823 8.04287593 110.1015625 11.87890625 C109.71081543 12.78890381 109.32006836 13.69890137 108.91748047 14.63647461 C108.27770264 16.08485718 108.27770264 16.08485718 107.625 17.5625 C106.95235107 19.08725952 106.95235107 19.08725952 106.26611328 20.64282227 C95.24064471 45.3018319 81.39489125 68.27483682 64 89 C63.24976563 89.90032959 63.24976563 89.90032959 62.484375 90.81884766 C56.90449982 97.49501638 51.22487726 103.91345334 45 110 C44.67 110.66 44.34 111.32 44 112 C43.34 112 42.68 112 42 112 C42 112.66 42 113.32 42 114 C41.34 114 40.68 114 40 114 C40 114.66 40 115.32 40 116 C38.70703125 117.3046875 38.70703125 117.3046875 36.8125 118.875 C33.62183383 121.57781387 30.53717546 124.35447511 27.49707031 127.22290039 C21.32749216 133.0312555 14.91329281 138.37131739 8.19140625 143.52734375 C5.0538992 145.93407993 2.02299933 148.45119665 -1 151 C-4.73452604 149.34421014 -7.85303499 146.98737106 -11.0625 144.5 C-11.91751099 143.84004028 -11.91751099 143.84004028 -12.78979492 143.16674805 C-17.57540538 139.42510152 -22.06163034 135.43686173 -26.515625 131.3046875 C-28.66721582 129.30871488 -30.84640528 127.36107022 -33.0625 125.4375 C-34.3750423 124.29171512 -35.6875397 123.1458788 -37 122 C-37.8146875 121.29101562 -38.629375 120.58203125 -39.46875 119.8515625 C-43.97773507 115.87224736 -48.17687089 111.86413018 -52.046875 107.26171875 C-54.00031916 104.99963041 -56.04080666 102.83692069 -58.1015625 100.67285156 C-78.87987731 78.70910726 -117 33.18568712 -117 1 C-103.97813067 -0.20665971 -103.97813067 -0.20665971 -99.65625 2.4296875 C-97.81062913 4.51859476 -96.40133811 6.59047697 -95 9 C-94.4946875 9.82886719 -93.989375 10.65773437 -93.46875 11.51171875 C-92.45740203 13.1964387 -91.4634623 14.89174654 -90.48828125 16.59765625 C-89.03222171 18.94798858 -87.45789725 20.93530778 -85.625 23 C-83 26 -83 26 -83 28 C-82.34 28 -81.68 28 -81 28 C-81 28.66 -81 29.32 -81 30 C-80.43023437 30.2578125 -79.86046875 30.515625 -79.2734375 30.78125 C-76.78195305 32.11689115 -74.80074855 33.69832752 -72.625 35.5 C-69.20432528 38.21957775 -66.32639485 40.00160119 -62 41 C-61.08082108 36.91401488 -60.53671523 33.18009215 -61 29 C-62.91216972 26.64586653 -64.8982634 25.33767987 -67.4453125 23.703125 C-74.24638303 19.16907798 -78.95521784 12.48508948 -82 5 C-82 3.68 -82 2.36 -82 1 C-73.09 1 -64.18 1 -55 1 C-55 9.46416547 -55.43153577 16.81779783 -56.6875 25.0625 C-56.86394043 26.23973633 -57.04038086 27.41697266 -57.22216797 28.62988281 C-58.95524304 39.64159834 -61.58025638 50.23603831 -65.3359375 60.734375 C-66.28480172 63.89780152 -66.28480172 63.89780152 -65.08203125 66.375 C-62.06165798 68.7323645 -59.47491719 68.70030329 -55.6875 69 C-47.79575511 69.6281986 -43.34437366 72.24452067 -38 78 C-35.61802947 74.80837526 -35.61802947 74.80837526 -35.2109375 71.0234375 C-36.65549689 67.31907234 -39.80068182 65.21091094 -43 63 C-46.24618446 61.60794936 -46.24618446 61.60794936 -49 61 C-48.3329877 51.43182353 -46.51668574 42.02936813 -44.49609375 32.66455078 C-43.17248156 26.42060781 -42.41955436 20.23110992 -41.875 13.875 C-41.74544922 12.44027344 -41.74544922 12.44027344 -41.61328125 10.9765625 C-41.40401903 8.6514267 -41.19966288 6.3259763 -41 4 C-27.24805685 -0.06074748 -14.22688111 -0.26230245 0 0 Z " fill="#027141" transform="translate(302,203)"/>
<path d="M0 0 C52.47 0 104.94 0 159 0 C159 16.5 159 33 159 50 C101.58 50 44.16 50 -15 50 C-14.25096901 46.25484506 -13.4452002 43.25817446 -12.109375 39.74609375 C-11.72910156 38.72451172 -11.34882813 37.70292969 -10.95703125 36.65039062 C-10.17356361 34.56494682 -9.3848064 32.48147971 -8.58984375 30.40039062 C-4.84976359 20.29967246 -2.66995913 10.6798365 0 0 Z " fill="#FEFEFE" transform="translate(441,175)"/>
<path d="M0 0 C52.47 0 104.94 0 159 0 C160.65 6.6 162.3 13.2 164 20 C165.69628358 24.91550789 167.4139124 29.73305569 169.3125 34.5625 C170.20864181 36.87467297 171.1007825 39.18840199 171.98828125 41.50390625 C172.56896362 42.98612671 172.56896362 42.98612671 173.16137695 44.49829102 C174 47 174 47 174 50 C116.58 50 59.16 50 0 50 C0 33.5 0 17 0 0 Z " fill="#FEFEFE" transform="translate(0,175)"/>
<path d="M0 0 C1.63624045 1.14290162 3.23838937 2.33543738 4.8125 3.5625 C11.79399732 8.77471375 19.35237916 12.85474002 27 17 C25.5340953 19.9318094 23.40942698 20.25693508 20.4375 21.5625 C13.77462583 24.78262415 8.36305146 29.27389707 5 36 C7.7084017 36.02714434 10.41652721 36.04690846 13.125 36.0625 C13.88554687 36.07087891 14.64609375 36.07925781 15.4296875 36.08789062 C19.7389644 36.10646509 23.75516474 35.86117265 28 35 C31 39.625 31 39.625 31 43 C28.8046875 44.578125 28.8046875 44.578125 25.875 46.25 C20.89969045 49.28762472 17.30603902 52.20961693 14 57 C13.38125 57.886875 12.7625 58.77375 12.125 59.6875 C9.81165491 66.4990161 9.99195498 73.48339946 12.9375 80.0625 C13.62060471 81.37729293 14.30751688 82.69012229 15 84 C15.33 84.99 15.66 85.98 16 87 C11.40154799 87.44862946 8.37331101 86.75514244 4.546875 84.30859375 C1.79259024 81.97858013 0.65579353 79.44291602 0 76 C-0.2210807 71.98537554 -0.17802558 68.01546575 0 64 C-0.56847656 64.01160156 -1.13695312 64.02320313 -1.72265625 64.03515625 C-2.88087891 64.04869141 -2.88087891 64.04869141 -4.0625 64.0625 C-4.81660156 64.07410156 -5.57070313 64.08570313 -6.34765625 64.09765625 C-9 64 -9 64 -12.21875 63.53125 C-16.62624605 62.91201502 -20.99566865 62.65605787 -25.4375 62.4375 C-28.263125 62.293125 -31.08875 62.14875 -34 62 C-34 55.73 -34 49.46 -34 43 C-41.92 43.99 -41.92 43.99 -50 45 C-50 62.16 -50 79.32 -50 97 C-47.69 97 -45.38 97 -43 97 C-43 97.33 -43 97.66 -43 98 C-45.37438249 98.3383344 -47.74934959 98.67079002 -50.125 99 C-50.79015625 99.09539062 -51.4553125 99.19078125 -52.140625 99.2890625 C-56.18849 99.84465181 -59.87520387 100 -64 100 C-64 90.1 -64 80.2 -64 70 C-68.29 71.98 -72.58 73.96 -77 76 C-77.66 76 -78.32 76 -79 76 C-79 84.58 -79 93.16 -79 102 C-87.25 102 -95.5 102 -104 102 C-97.91569334 86.78923334 -83.53308756 75.44430452 -68.75 69.09765625 C-67.33793313 68.53263677 -65.9212913 67.97889717 -64.5 67.4375 C-63.84193359 67.18597168 -63.18386719 66.93444336 -62.50585938 66.67529297 C-58.55061939 65.27035456 -55.18580673 64.74807645 -51 65 C-51 61.37 -51 57.74 -51 54 C-58.46808026 56.02305344 -65.74454014 58.07899556 -72.81640625 61.265625 C-75.31630414 62.10637778 -77.37991653 62.12893205 -80 62 C-80.10957031 61.31292969 -80.21914062 60.62585938 -80.33203125 59.91796875 C-80.49058594 59.01691406 -80.64914063 58.11585938 -80.8125 57.1875 C-80.96332031 56.29417969 -81.11414063 55.40085938 -81.26953125 54.48046875 C-82.06950828 51.7639692 -82.75299186 50.68525611 -85 49 C-88.10839021 48.2730774 -88.10839021 48.2730774 -91 48 C-83.18791946 38.68456376 -83.18791946 38.68456376 -80 36 C-78.17578125 36.3515625 -78.17578125 36.3515625 -76 37 C-66.98832192 38.01909122 -59.43239675 35.94662521 -50.98046875 33.19140625 C-42.84839537 30.65743635 -34.75522915 30.84804078 -26.3125 30.875 C-25.08982422 30.87113281 -23.86714844 30.86726563 -22.60742188 30.86328125 C-21.43373047 30.86457031 -20.26003906 30.86585937 -19.05078125 30.8671875 C-17.98512939 30.86831543 -16.91947754 30.86944336 -15.8215332 30.87060547 C-13.37243145 30.98292042 -11.33521482 31.29201827 -9 32 C-9 32.99 -9 33.98 -9 35 C-8.74347656 34.50371094 -8.48695313 34.00742188 -8.22265625 33.49609375 C-4.8997292 27.59985618 -0.73465858 23.60528634 5 20 C5.66 20 6.32 20 7 20 C7 19.34 7 18.68 7 18 C5.948125 17.9071875 5.948125 17.9071875 4.875 17.8125 C2 17 2 17 -0.9375 14.375 C-3.74096111 11.69997182 -3.74096111 11.69997182 -6.9375 12 C-9.71512844 12.90698071 -12.29101829 14.03199608 -14.94921875 15.234375 C-21.32606972 17.61506603 -28.24025841 18.30043296 -35 18 C-35 21.63 -35 25.26 -35 29 C-42.425 30.485 -42.425 30.485 -50 32 C-50.556875 30.2675 -51.11375 28.535 -51.6875 26.75 C-53.35268767 22.20432979 -54.54798233 19.33200925 -59 17 C-62.18762109 16.20309162 -62.18762109 16.20309162 -65 16 C-63.53862003 14.26582911 -62.06850968 12.54088235 -60.58203125 10.828125 C-59.34783218 9.40193941 -58.13776156 7.95486249 -56.9375 6.5 C-56.298125 6.005 -55.65875 5.51 -55 5 C-53.32583307 5.2933496 -51.66012243 5.63546962 -50 6 C-35.45738586 7.11725373 -20.53571635 4.56503118 -7.2265625 -1.4609375 C-4.15120803 -2.205497 -2.77160975 -1.46123749 0 0 Z " fill="#921833" transform="translate(327,94)"/>
<path d="M0 0 C0.74830078 0.41572266 0.74830078 0.41572266 1.51171875 0.83984375 C8.23761427 4.23297955 14.53540422 4.76925515 22 5 C21.566875 5.42410156 21.13375 5.84820312 20.6875 6.28515625 C17.50328219 9.63890417 16.07774268 11.18370188 15.625 15.9375 C15.74875 16.948125 15.8725 17.95875 16 19 C13.25 19.25 13.25 19.25 10 19 C9.360625 18.319375 8.72125 17.63875 8.0625 16.9375 C6.06150646 14.6235365 6.06150646 14.6235365 2.625 14.9375 C-1.73210308 16.21458194 -3.86531069 17.72282481 -7 21 C-9.05808631 24.97423563 -10.18471638 28.6318749 -11 33 C-11.92039062 32.96519531 -12.84078125 32.93039063 -13.7890625 32.89453125 C-27.7481344 32.59601749 -39.48852221 35.69632266 -52.51489258 40.43823242 C-59.92982303 43.09245258 -67.22802412 44.75264585 -75 46 C-75.9286084 46.17200928 -76.8572168 46.34401855 -77.81396484 46.52124023 C-83.27249884 47.34148431 -88.74003038 47.18452164 -94.25 47.1875 C-95.42691406 47.19974609 -96.60382813 47.21199219 -97.81640625 47.22460938 C-113.49844963 47.25077519 -113.49844963 47.25077519 -120 44 C-119.34 39.71 -118.68 35.42 -118 31 C-103.21625164 31.9047346 -103.21625164 31.9047346 -98.875 32.5625 C-64.37648062 36.45749412 -30.75562033 24.21703651 -4 3 C-2.66988725 1.99572024 -1.33782091 0.99398843 0 0 Z " fill="#F9FBFA" transform="translate(377,208)"/>
<path d="M0 0 C1.63624045 1.14290162 3.23838937 2.33543738 4.8125 3.5625 C11.79399732 8.77471375 19.35237916 12.85474002 27 17 C25.5340953 19.9318094 23.40942698 20.25693508 20.4375 21.5625 C10.66247095 26.38035874 5.80172455 32.97021837 1.96484375 43.046875 C0.67111916 47.00661505 -0.24892715 50.903239 -1 55 C-4.64114838 52.34294578 -7.29493504 50.21779226 -9 46 C-9.92481737 39.53644121 -9.57016301 34.23766924 -5.703125 28.859375 C-2.5455692 25.41213518 1.04349937 22.48738743 5 20 C5.66 20 6.32 20 7 20 C7 19.34 7 18.68 7 18 C5.948125 17.9071875 5.948125 17.9071875 4.875 17.8125 C2 17 2 17 -0.9375 14.375 C-3.74096111 11.69997182 -3.74096111 11.69997182 -6.9375 12 C-9.71512844 12.90698071 -12.29101829 14.03199608 -14.94921875 15.234375 C-21.32606972 17.61506603 -28.24025841 18.30043296 -35 18 C-35 21.63 -35 25.26 -35 29 C-42.425 30.485 -42.425 30.485 -50 32 C-50.8353125 29.40125 -50.8353125 29.40125 -51.6875 26.75 C-53.35268767 22.20432979 -54.54798233 19.33200925 -59 17 C-62.18762109 16.20309162 -62.18762109 16.20309162 -65 16 C-63.53862003 14.26582911 -62.06850968 12.54088235 -60.58203125 10.828125 C-59.34783218 9.40193941 -58.13776156 7.95486249 -56.9375 6.5 C-56.298125 6.005 -55.65875 5.51 -55 5 C-53.32583307 5.2933496 -51.66012243 5.63546962 -50 6 C-35.45738586 7.11725373 -20.53571635 4.56503118 -7.2265625 -1.4609375 C-4.15120803 -2.205497 -2.77160975 -1.46123749 0 0 Z " fill="#FBF7F7" transform="translate(327,94)"/>
<path d="M0 0 C5.94 0 11.88 0 18 0 C18.37125 1.93875 18.7425 3.8775 19.125 5.875 C21.37284124 15.52811262 25.6159561 23.44390741 34 29 C40.65402873 32.98785968 47.47311743 35.23991149 55 37 C54 39 54 39 52.2421875 39.60546875 C39.81237881 41.79259537 27.86939074 37.95766926 16.98828125 32.05078125 C12.41970322 29.6363461 8.05663996 29.36897172 3 30 C0.38550696 31.07535678 -1.62045487 32.41363658 -4 34 C-5.32646156 34.6802367 -6.65608877 35.35492261 -8 36 C-11.08532213 31.55713613 -11.08532213 31.55713613 -10.70092773 29.04711914 C-9.79227456 26.39332017 -8.48391977 23.98668858 -7.16796875 21.515625 C-3.3541693 14.34622109 -0.90808283 8.17274544 0 0 Z " fill="#F8FBF9" transform="translate(274,257)"/>
<path d="M0 0 C1.22267578 -0.00386719 2.44535156 -0.00773437 3.70507812 -0.01171875 C4.87876953 -0.01042969 6.05246094 -0.00914063 7.26171875 -0.0078125 C8.32737061 -0.00668457 9.39302246 -0.00555664 10.4909668 -0.00439453 C13.3125 0.125 13.3125 0.125 17.3125 1.125 C16.6525 4.425 15.9925 7.725 15.3125 11.125 C14.48226318 11.10405273 13.65202637 11.08310547 12.79663086 11.06152344 C-8.810307 10.26906033 -8.810307 10.26906033 -29.6875 15.125 C-30.56535156 15.43308594 -31.44320312 15.74117187 -32.34765625 16.05859375 C-34.14427418 16.70266433 -35.92044927 17.40375481 -37.6875 18.125 C-37.56375 19.7028125 -37.56375 19.7028125 -37.4375 21.3125 C-37.6796875 23.234375 -37.6796875 23.234375 -38.6875 25.125 C-43.27492267 27.87473109 -48.29164831 30.125 -53.6875 30.125 C-53.79707031 29.51011719 -53.90664062 28.89523438 -54.01953125 28.26171875 C-54.17808594 27.45347656 -54.33664063 26.64523438 -54.5 25.8125 C-54.65082031 25.01199219 -54.80164063 24.21148437 -54.95703125 23.38671875 C-55.78204262 20.83227177 -56.57214949 19.7521927 -58.6875 18.125 C-61.79589021 17.3980774 -61.79589021 17.3980774 -64.6875 17.125 C-56.87541946 7.80956376 -56.87541946 7.80956376 -53.6875 5.125 C-51.86328125 5.4765625 -51.86328125 5.4765625 -49.6875 6.125 C-40.67582192 7.14409122 -33.11989675 5.07162521 -24.66796875 2.31640625 C-16.53589537 -0.21756365 -8.44272915 -0.02695922 0 0 Z " fill="#FCF8F8" transform="translate(300.6875,124.875)"/>
<path d="M0 0 C0 10.89 0 21.78 0 33 C2.31 33 4.62 33 7 33 C7 33.33 7 33.66 7 34 C4.62561751 34.3383344 2.25065041 34.67079002 -0.125 35 C-0.79015625 35.09539062 -1.4553125 35.19078125 -2.140625 35.2890625 C-6.18849 35.84465181 -9.87520387 36 -14 36 C-14 26.1 -14 16.2 -14 6 C-20.435 8.97 -20.435 8.97 -27 12 C-27.66 12 -28.32 12 -29 12 C-29 20.58 -29 29.16 -29 38 C-37.25 38 -45.5 38 -54 38 C-48.23449628 23.58624069 -34.81376629 12.41830266 -20.8984375 6.03613281 C-6.54222973 0 -6.54222973 0 0 0 Z " fill="#8E0E2D" transform="translate(277,158)"/>
<path d="M0 0 C0 0.33 0 0.66 0 1 C-2.31 1 -4.62 1 -7 1 C-6.98839844 1.85078125 -6.97679687 2.7015625 -6.96484375 3.578125 C-6.88415583 14.4133606 -7.38507149 25.18384675 -8 36 C-9.89575251 36.02721176 -11.79161979 36.04649136 -13.6875 36.0625 C-14.74324219 36.07410156 -15.79898437 36.08570313 -16.88671875 36.09765625 C-19.72410262 36.00865425 -22.2438919 35.64939838 -25 35 C-25.06058594 35.68707031 -25.12117188 36.37414062 -25.18359375 37.08203125 C-25.26738281 37.98308594 -25.35117187 38.88414062 -25.4375 39.8125 C-25.51871094 40.70582031 -25.59992188 41.59914062 -25.68359375 42.51953125 C-26 45 -26 45 -27 48 C-21.06 48.99 -15.12 49.98 -9 51 C-10.85714286 65 -10.85714286 65 -14 70 C-16.91997173 68.6738993 -19.04302874 67.18964438 -21.375 65 C-24.39502245 62.32568207 -27.02849953 60.96865865 -31 60 C-30.3329877 50.43182353 -28.51668574 41.02936813 -26.49609375 31.66455078 C-25.17248156 25.42060781 -24.41955436 19.23110992 -23.875 12.875 C-23.78863281 11.91851562 -23.70226562 10.96203125 -23.61328125 9.9765625 C-23.40401903 7.6514267 -23.19966288 5.3259763 -23 3 C-15.18930266 0.71801479 -8.09827146 -0.16527085 0 0 Z " fill="#066239" transform="translate(284,204)"/>
<path d="M0 0 C1.72101535 2.58152302 2 3.84918025 2 7 C-0.1953125 8.578125 -0.1953125 8.578125 -3.125 10.25 C-8.10030955 13.28762472 -11.69396098 16.20961693 -15 21 C-15.928125 22.3303125 -15.928125 22.3303125 -16.875 23.6875 C-19.18834509 30.4990161 -19.00804502 37.48339946 -16.0625 44.0625 C-15.37939529 45.37729293 -14.69248312 46.69012229 -14 48 C-13.67 48.99 -13.34 49.98 -13 51 C-17.59842039 51.44862638 -20.62080921 50.74975721 -24.453125 48.31640625 C-27.82641225 45.44570472 -28.70430486 42.0329041 -29.3125 37.8515625 C-29.67152992 31.09731205 -27.84529709 24.93227247 -25.97265625 18.515625 C-25.09501627 15.3434323 -24.47407374 12.25364293 -24 9 C-24.66 8.67 -25.32 8.34 -26 8 C-25.34 5.69 -24.68 3.38 -24 1 C-20.43553469 -0.1210112 -17.15562839 -0.06767924 -13.4375 0 C-8.86846729 0.08297903 -4.18635803 -1.75556949 0 0 Z " fill="#FAF6F6" transform="translate(356,130)"/>
<path d="M0 0 C5.69567597 0.92720307 5.69567597 0.92720307 8.171875 1.51953125 C10.54685328 1.92301513 12.67024576 2.08780273 15.06640625 2.140625 C16.1656543 2.16962891 16.1656543 2.16962891 17.28710938 2.19921875 C18.80767332 2.23315408 20.32866901 2.25130857 21.84960938 2.25390625 C25.81556938 2.38668729 27.61542965 2.63147818 30.52734375 5.421875 C32 8 32 8 32 10 C30.741875 10.391875 29.48375 10.78375 28.1875 11.1875 C25.25199832 12.29935373 24.10364957 12.88015518 22 15.3125 C20.43582516 19.51621989 20.43582516 22.48378011 22 26.6875 C24.89483143 30.03464884 27.80144537 30.69225348 32 32 C32.495 30.515 32.495 30.515 33 29 C34.65 28.67 36.3 28.34 38 28 C39.5625 29.6875 39.5625 29.6875 41 32 C40.8125 34.6875 40.8125 34.6875 40 37 C34.89894933 39.55052533 28.0120738 38.23208778 22.6875 36.875 C18.17229571 35.34166772 15.26760358 33.25064513 13 29 C12.37552419 27.36176476 11.77271491 25.715167 11.1875 24.0625 C8.69813066 17.29835298 3.83052798 13.88701865 -2 10 C-2.42905061 6.05273438 -2.08466413 3.38757921 0 0 Z " fill="#FAF4F4" transform="translate(341,152)"/>
<path d="M0 0 C2.88252418 1.28955029 5.23956058 2.9706648 7.7265625 4.90625 C9.48811936 6.259031 9.48811936 6.259031 12.375 7.0625 C12.375 7.7225 12.375 8.3825 12.375 9.0625 C10.961925 10.03819464 9.54356634 11.00725419 8.09765625 11.93359375 C3.01655505 15.26338569 -0.48122861 18.30816626 -2.625 24.0625 C-3.1190232 26.74088068 -3.39049773 29.34227366 -3.625 32.0625 C-3.955 32.0625 -4.285 32.0625 -4.625 32.0625 C-5.49016528 27.56364053 -5.93403272 25.04602209 -3.625 21.0625 C-5.15423096 21.07821045 -5.15423096 21.07821045 -6.71435547 21.09423828 C-10.49003602 21.13038727 -14.26570121 21.15338177 -18.04150391 21.17236328 C-19.67694672 21.18243254 -21.31237149 21.19608881 -22.94775391 21.21337891 C-25.2959437 21.23758705 -27.64389588 21.24897357 -29.9921875 21.2578125 C-31.09226639 21.27329636 -31.09226639 21.27329636 -32.21456909 21.28909302 C-34.01962697 21.28949368 -35.8240783 21.18462755 -37.625 21.0625 C-38.285 20.4025 -38.945 19.7425 -39.625 19.0625 C-36.325 18.7325 -33.025 18.4025 -29.625 18.0625 C-29.625 14.4325 -29.625 10.8025 -29.625 7.0625 C-28.43003906 6.89234375 -27.23507812 6.7221875 -26.00390625 6.546875 C-18.29031124 5.38947102 -11.33084084 4.33628695 -4.30078125 0.80078125 C-2.625 0.0625 -2.625 0.0625 0 0 Z " fill="#8E0E2D" transform="translate(321.625,104.9375)"/>
<path d="M0 0 C8.91 0 17.82 0 27 0 C27 12.53846154 27 12.53846154 26.125 19 C25.96257812 20.258125 25.80015625 21.51625 25.6328125 22.8125 C25 26 25 26 23 29 C12.66627532 22.15936535 4.89320637 15.70426286 0 4 C0 2.68 0 1.36 0 0 Z " fill="#09643B" transform="translate(220,204)"/>
<path d="M0 0 C4.95 0 9.9 0 15 0 C15.18451025 23.04328018 15.18451025 23.04328018 14 34 C9.38 34 4.76 34 0 34 C0 22.78 0 11.56 0 0 Z " fill="#FCFDFD" transform="translate(277,205)"/>
<path d="M0 0 C0 8.25 0 16.5 0 25 C-7.92 25 -15.84 25 -24 25 C-20.73049085 16.82622713 -9.90626509 0 0 0 Z " fill="#890526" transform="translate(247,171)"/>
<path d="M0 0 C0.66 0.33 1.32 0.66 2 1 C1.85851011 2.6045556 1.71164314 4.20863767 1.5625 5.8125 C1.48128906 6.70582031 1.40007812 7.59914062 1.31640625 8.51953125 C1 11 1 11 0 14 C8.91 15.485 8.91 15.485 18 17 C16.14285714 31 16.14285714 31 13 36 C10.08002827 34.6738993 7.95697126 33.18964438 5.625 31 C2.60497755 28.32568207 -0.02849953 26.96865865 -4 26 C-3.38641858 17.19828026 -1.70450615 8.64045258 0 0 Z " fill="#0E6840" transform="translate(257,238)"/>
<path d="M0 0 C3.54187308 -0.0541203 7.0829128 -0.09373315 10.625 -0.125 C11.62402344 -0.14175781 12.62304688 -0.15851563 13.65234375 -0.17578125 C18.85578049 -0.2102411 23.13160108 -0.0741571 28 2 C31.07320985 3.06171338 31.07320985 3.06171338 34 2 C33.01 5.3 32.02 8.6 31 12 C24.27738971 12.12928097 17.69151351 11.61973967 11 11 C9.93910156 10.90460938 8.87820313 10.80921875 7.78515625 10.7109375 C5.1898171 10.47712316 2.59486667 10.23900088 0 10 C0 6.7 0 3.4 0 0 Z " fill="#FDFAFA" transform="translate(295,146)"/>
<path d="M0 0 C1.21236328 0.01353516 1.21236328 0.01353516 2.44921875 0.02734375 C3.37154297 0.04474609 3.37154297 0.04474609 4.3125 0.0625 C3.4375 6.8125 3.4375 6.8125 2.3125 9.0625 C-2.9675 9.0625 -8.2475 9.0625 -13.6875 9.0625 C-13.6875 8.7325 -13.6875 8.4025 -13.6875 8.0625 C-11.7075 8.0625 -9.7275 8.0625 -7.6875 8.0625 C-7.6875 5.7525 -7.6875 3.4425 -7.6875 1.0625 C-4.80538698 0.10179566 -2.98899956 -0.04331883 0 0 Z " fill="#8D0D2B" transform="translate(300.6875,181.9375)"/>
<path d="M0 0 C0.66 0.33 1.32 0.66 2 1 C1.01 3.31 0.02 5.62 -1 8 C-0.01 8.33 0.98 8.66 2 9 C1.30130124 13.72173269 0.19817903 18.27775349 -1.0625 22.875 C-1.24876953 23.56335938 -1.43503906 24.25171875 -1.62695312 24.9609375 C-2.08205811 26.64132514 -2.54066678 28.32076322 -3 30 C-4.95881942 26.72079119 -5.05559492 26.23826396 -4.125 22.25 C-3.75375 21.1775 -3.3825 20.105 -3 19 C-4.32 19.33 -5.64 19.66 -7 20 C-7.66 19.01 -8.32 18.02 -9 17 C-8.01 17.33 -7.02 17.66 -6 18 C-5.47599609 16.30230469 -5.47599609 16.30230469 -4.94140625 14.5703125 C-4.48186105 13.08851369 -4.02222069 11.60674438 -3.5625 10.125 C-3.33240234 9.37863281 -3.10230469 8.63226563 -2.86523438 7.86328125 C-1.11328125 2.2265625 -1.11328125 2.2265625 0 0 Z " fill="#9E3245" transform="translate(331,130)"/>
<path d="M0 0 C0.33 0 0.66 0 1 0 C1 6.27 1 12.54 1 19 C5.62 19 10.24 19 15 19 C15 15.04 15 11.08 15 7 C15.33 7 15.66 7 16 7 C15.96519531 7.91523438 15.93039062 8.83046875 15.89453125 9.7734375 C15.86746094 10.96195313 15.84039062 12.15046875 15.8125 13.375 C15.77769531 14.55835938 15.74289062 15.74171875 15.70703125 16.9609375 C15.80371094 17.96382812 15.90039062 18.96671875 16 20 C16.99 20.66 17.98 21.32 19 22 C11.90565767 22.09733092 5.01805857 22.10087193 -2 21 C-1.34 20.67 -0.68 20.34 0 20 C0 13.4 0 6.8 0 0 Z " fill="#5EA285" transform="translate(276,220)"/>
<path d="M0 0 C3.62928915 1.20976305 4.11351038 2.27875374 6.125 5.4375 C6.64320313 6.24058594 7.16140625 7.04367187 7.6953125 7.87109375 C9 10 9 10 10 12 C3.61479646 11.84036991 0.33991635 8.21875117 -4 4 C-2.68 2.68 -1.36 1.36 0 0 Z " fill="#E6F0EC" transform="translate(273,290)"/>
</svg>